# xmcd CD database file
#
# Track frame offsets:
#	150
#	16503
#	32631
#	43748
#	58748
#	68567
#	79887
#	89914
#	100605
#	112341
#	129400
#	142807
#	154762
#	166239
#	179968
#	190633
#	204689
#	218271
#	229933
#	240549
#	251314
#	262604
#	271965
#	284759
#	295429
#	305143
#	317068
#	330127
#	341777
#	350596
#
# Disc length: 4986 seconds
#
# Revision: 0
# Processed by: cddbd v1.5.2PL0 Copyright (c) Steve Scherf et al.
# Submitted via: CDex 1.79
#
DISCID=ba13781e
DTITLE=Ronnie Hawkins - The Ballads Of Ronnie Hawkins
DYEAR=2011
DGENRE=Country
TTITLE0=Home From The Forest
TTITLE1=Brand New Tennessee Waltz
TTITLE2=Someone Like You
TTITLE3=Odessa
TTITLE4=You Cheated You Lied
TTITLE5=Treasure Of Love
TTITLE6=Love Me Like You Can (1958)
TTITLE7=One More Night
TTITLE8=Lonely Hours
TTITLE9=I May Never Get To Heaven
TTITLE10=I Gave My Love A Cherry
TTITLE11=Ballad Of Caryl Chessman
TTITLE12=Mister and Mississippi
TTITLE13=Honey Love
TTITLE14=One Out Of A Hundred
TTITLE15=The Death Of Floyd Collins
TTITLE16=The Same Old Song
TTITLE17=Your Cheating Heart
TTITLE18=Lonesome Town
TTITLE19=Weary Blues From Waitin` 
TTITLE20=Pledging My Love
TTITLE21=There`ll Be No Teardrops Tonight
TTITLE22=I`m So Lonesome I Could Cry
TTITLE23=Bluebirds Over The Mountain
TTITLE24=You Win Again
TTITLE25=The Lady Came From Baltimore
TTITLE26=(Stuck In) Lodi
TTITLE27=Dreams Do Come True
TTITLE28=Love Me Like You Can (1959)
TTITLE29=Down In The Alley
EXTD=YEAR: 2011
EXTT0=
EXTT1=
EXTT2=
EXTT3=
EXTT4=
EXTT5=
EXTT6=
EXTT7=
EXTT8=
EXTT9=
EXTT10=
EXTT11=
EXTT12=
EXTT13=
EXTT14=
EXTT15=
EXTT16=
EXTT17=
EXTT18=
EXTT19=
EXTT20=
EXTT21=
EXTT22=
EXTT23=
EXTT24=
EXTT25=
EXTT26=
EXTT27=
EXTT28=
EXTT29=
PLAYORDER=
